<?xml version="1.0" encoding="utf-8"?>
<!-- Generator: Adobe Illustrator 16.0.3, SVG Export Plug-In . SVG Version: 6.00 Build 0)  -->
<!DOCTYPE svg PUBLIC "-//W3C//DTD SVG 1.1//EN" "http://www.w3.org/Graphics/SVG/1.1/DTD/svg11.dtd">
<svg version="1.1" id="Livello_1" xmlns="http://www.w3.org/2000/svg" xmlns:xlink="http://www.w3.org/1999/xlink" x="0px" y="0px"
	 width="764px" height="275px" viewBox="0 0 764 275" enable-background="new 0 0 764 275" xml:space="preserve">
<path fill="#0087BF" d="M173,111.4c-1.7-0.1-13.3-15.8-15.8-18.4c-2.5-2.6-6.6-5.9,1-11.3c7.6-5.5,12.1-7.2,16.8-7.2
	c4.7,0,11.5-2.8,13.1-4.1C189.7,69.1,228,50,228,50l22.1-11.1c0,0-60.4,32.8-65.8,35.5c-5.4,2.7-4.4,2.7,3.8-0.6
	c8.1-3.3,33.8-16.7,33.8-16.7s0.2,1-0.8,1.9c-1,0.8,2.9-0.6,5.2-2.1c2.3-1.5,22.1-12.1,22.1-12.1l-0.6,1.7l38.2-22.1l-18.8,13.8
	l19-10.9c0,0-17.3,12.3-21.3,14.8c-4,2.5-56,30.7-60.6,33c-4.6,2.3,35.9-16.7,45.6-22.3c9.6-5.6,38.4-23.8,38.4-23.8l-15,11.3
	c0,0,19.2-10.9,20.5-11.5c1.3-0.6-14.2,11.5-18,14c-3.8,2.5,5.2-1.7,12.5-6.7c7.3-5,23-15.9,25.9-17.1s4,0.6,4,0.6
	s-12.5,8.8-16.1,11.3c-3.6,2.5,19-10.6,22.6-12.3c3.6-1.7,6.1,0-1,4.8c-7.1,4.8-61.9,41.7-100.1,59.1c0,0,19.6-2.1,41.2-5.8
	c21.5-3.8,32-6.5,32.2-5c0.2,1.5,0.4,5.4,2.1,9.8c1.7,4.4,4,7.3,0.6,9.6c-3.3,2.3-33,16.9-37,18.6c-4,1.7-31.1,13.1-46,22.1
	c0,0-9.8,5-10.7,6.1c0,0-3.1-0.6-4.4,0c-1.3,0.6-11.7,7.3-14,8.8c-2.3,1.5-1.9,1.5-4.8,2.1c-2.9,0.6-12.5,5.8-17.6,9.2
	c-5,3.3-10.2,7.3-11.5,7.3c-1.3,0,10-8.6,10-8.6l-12.5,7.5c0,0,9.6-9,12.3-10.6c2.7-1.7,54.3-30.7,63.3-35.9c0,0-52.7,28-65.4,36.1
	c-12.7,8.1-19.4,10.9-19.4,10.9l16.7-13.6c0,0-30.9,20.7-33,21.5c-2.1,0.8-3.3,0-3.3,0l12.3-9.2c0,0-19.9,11.9-21.1,11.9
	c-1.3,0-1-2.1,2.3-4.6c3.3-2.5,64.6-46.3,101.8-63.4c0,0-9-0.6-14.8,0.4c-5.9,1-9.7,0.6-6.9,0.4C205.6,107.2,187.5,112.4,173,111.4"
	/>
<path fill="#00377B" d="M106.9,222.9c0,0-18.6,20.6-37.6,20.2c-19-0.5-36.1-2.3-33.4-35.5c2.8-33.2,18-62.2,34.1-71.2
	c15.1-8.4,30.5-6.8,38,1.4c7.5,8.2,8,20.8,8,20.8s1.3,3.8,4.1,0.8c2.8-3.1,10.4-15.5,10.4-15.5s1.5-9.6-8.4-17.1
	c-10.7-8.1-59-6.1-77.6,14.5c-18.6,20.6-29.1,39.9-30.6,75.3c-1.6,35.5,32,37.5,47.3,37.8c15.3,0.3,30.3-4.3,44.1-19.6L106.9,222.9z
	"/>
<path fill="#00377B" d="M125.8,229.4c-0.3,7.6,2.2,15,9.6,15.8c7.4,0.8,14.3-2.6,20.6-8.4c6.3-5.8,10.9-28,17.4-45.6
	c6.4-17.6,3.6-21.9,3.6-21.9c-9.2-9.4-24-5.4-36.2,14.2C128.5,203.2,126,221.8,125.8,229.4 M160.8,246c0,0-1.4-1.3-6.7,0.8
	c-5.3,2-37.9,17.2-47.1-1.3c-9.1-18.5,11.5-60.2,24.2-71.7c12.7-11.5,30.6-20,56-13.7c0,0,5,0.5,8.9-1.8c3.9-2.3,6.4-2.7,4.9,3.1
	c-1.3,4.7-19.8,56.4-21.1,61.3c-1.3,4.9-3.3,15.3,3,17.9c8.5,3.5,16.3-2,16.3-2l-1,6.8c0,0-17.2,10-23.4,9.2
	C168.7,253.7,160.8,246,160.8,246"/>
<path fill="#00377B" d="M227.4,158c4.9-0.5,5-0.4,7.1,2.2c2.1,2.6,3.3,6.7,6.4,7.2c3.2,0.5,7.9-5,13.3-6.7
	c5.4-1.7,17.3-6.8,22.4,4.5c0,0,0.1,1.8-4.3,8.5c-4.4,6.7-5.5,9.8-8.3,9.6c-2.8-0.2-1.1-4.7-4-8.5c-2.9-3.8-13.2-8.5-19.1,1
	c-5.8,9.5-6,10.6-10.8,25.2c-4.9,14.6-14.7,40.6-12.1,43.3c2.7,2.7,4.1,5.6,3.2,6.3c-1,0.7-15.2,4.5-20.1,2.4
	c-4.6-1.9-3.6-10.7,0.5-19.8c4.1-9.1,16.7-48.3,17.7-53.5c1-5.2,1-9.8-3.2-10.1c-4.1-0.2-6.7-0.5-8.6-0.5c-1.9,0-6-2.8,1.6-5.3
	C216.6,161.2,222.5,158.5,227.4,158"/>
<path fill="#00377B" d="M458.5,158.1c4.9-0.5,5-0.4,7,2.2c2.1,2.6,3.3,6.7,6.4,7.2c3.2,0.5,7.9-5,13.3-6.7
	c5.3-1.7,17.3-6.8,22.4,4.5c0,0,0.1,1.8-4.3,8.5c-4.4,6.7-5.5,9.8-8.3,9.6c-2.8-0.2-1.1-4.7-4-8.5c-2.9-3.8-13.2-8.5-19.1,1
	c-5.8,9.5-6,10.6-10.8,25.2c-4.9,14.6-14.7,40.6-12.1,43.3c2.7,2.7,4.1,5.6,3.2,6.3c-1,0.7-15.2,4.5-20.1,2.4
	c-4.6-1.9-3.6-10.7,0.5-19.8s16.7-48.3,17.7-53.5c1-5.2,1-9.8-3.2-10.1c-4.1-0.2-6.7-0.5-8.6-0.5c-1.9,0-6-2.8,1.6-5.3
	C447.7,161.3,453.6,158.6,458.5,158.1"/>
<path fill="#00377B" d="M675.4,158.2c4.9-0.5,5-0.4,7.1,2.2c2.1,2.6,3.3,6.7,6.4,7.2c3.2,0.5,7.9-5,13.3-6.7
	c5.4-1.7,17.3-6.8,22.4,4.5c0,0,0.1,1.8-4.3,8.5c-4.4,6.7-5.5,9.8-8.3,9.6c-2.8-0.2-1.1-4.7-4-8.5c-2.9-3.8-13.2-8.5-19.1,1
	c-5.8,9.5-6,10.6-10.8,25.2c-4.9,14.6-14.7,40.6-12.1,43.3c2.7,2.7,4.1,5.6,3.2,6.3c-1,0.7-15.2,4.5-20.1,2.4
	c-4.6-1.9-3.6-10.7,0.5-19.8c4.1-9.1,16.7-48.3,17.7-53.5c1-5.2,1-9.8-3.2-10.1c-4.1-0.2-6.7-0.5-8.6-0.5c-1.9,0-6-2.8,1.6-5.3
	C664.6,161.4,670.5,158.7,675.4,158.2"/>
<path fill="#00377B" d="M268.6,217.4c0,0,3.2-6.6,5.6,6.4c2.4,13.1,11.3,24,26.1,22.3c14.8-1.7,27-13.5,26.6-26.1
	c-0.4-12.6-6.2-17.4-23.8-26.1c-17.6-8.8-30.6-19.7-18.8-46.7c11.8-27,53.5-24.4,59.8-23.7c8.6,0.9,19.9,9.4,14.8,19.9
	c-5,10.3-8.4,14.3-8.4,14.3s-3.1,4.5-3.8-8.1c-0.8-13.5-18.8-24.9-35.8-15.5c-16.8,9.3-13.7,29.1-5.2,35.3
	c8.6,6.2,41.8,15.2,40.5,40.5c-1.3,25.3-22.3,43.5-54.4,44.7c-28.7,1.1-36.4-15.9-32.3-23.8L268.6,217.4z"/>
<path fill="#00377B" d="M395.6,167.8c-10.5,4-22.5,27-20.8,31.3c1.7,4.3,7,2.7,15.6,0.9c11.8-2.6,20.4-5.1,23.1-19
	C416.2,167.8,409.1,162.6,395.6,167.8 M417.9,232.3l0,6.8c0,0-3.4,6.2-30.9,13.9c-31.4,8.8-45.7-8.5-34-45.6
	c13.5-43,38.4-47.5,54-49.2c15.6-1.7,30.6,2.2,26.1,24c-4.5,21.9-39.6,23.5-46.1,24.4c-6.4,0.9-12.2,1.3-14.8,4.7
	c-2.6,3.4-9.2,20.6,5.1,30S417.9,232.3,417.9,232.3"/>
<path fill="#00377B" d="M615.7,167.9c-10.5,4-22.5,27-20.8,31.3c1.7,4.3,7,2.8,15.6,0.9c11.8-2.6,20.4-5.1,23.1-19
	C636.3,167.9,629.2,162.8,615.7,167.9 M638,232.4l0,6.8c0,0-3.4,6.2-30.8,13.9c-31.4,8.8-45.7-8.5-34-45.6
	c13.5-43,38.4-47.5,54-49.2c15.6-1.7,30.6,2.2,26.1,24c-4.5,21.9-39.6,23.5-46.1,24.4c-6.4,0.9-12.2,1.3-14.8,4.7
	c-2.6,3.4-9.2,20.6,5.1,30C611.9,250.8,638,232.4,638,232.4"/>
<path fill="#00377B" d="M500.2,162.1c0,0,11.1-4.5,16.9-3.9c5.8,0.6,11.9,0,7,22c-4.2,18.7-12.7,53-11.4,57.1
	c1.9,5.8,9.5,6.8,13.5,3.7c4-3.1,13.5-8.7,24.8-32.2c11.3-23.6,10.3-35.5,8.6-37.4c-1.7-1.9-3.7-5-9.5-3.4c0,0-6.4-2,3.1-5.9
	c9.5-3.9,21.1-6.3,23.3-0.5c2.2,5.8,4,19.2-13.5,47.2c-18,28.8-38.5,46.7-56.5,46c-17.7-0.6-10.7-25.1-9.5-28.9
	c1.2-3.7,8.3-33.4,8.9-38.6c0.6-5.3,1.6-13.5,0.6-14.7c-0.9-1.2-8.5,0.3-8.5,0.3L500.2,162.1z"/>
<path fill="#00377B" d="M733.9,161.1c0,5.8,4.6,10.1,10,10.1c5.5,0,10-4.3,10.1-10c0-5.6-4.5-10-10-10
	C738.5,151.2,733.9,155.5,733.9,161.1 M735.7,161.1c0-4.8,3.6-8.5,8.3-8.4c4.6,0,8.2,3.7,8.2,8.5c0,4.9-3.6,8.6-8.2,8.6
	C739.2,169.7,735.7,166,735.7,161.1 M740,167l1.8,0l0-5l1.9,0l3.2,5l2,0l-3.3-5.2c1.7-0.2,3.1-1.1,3.1-3.2c0-2.2-1.3-3.3-4.1-3.4
	l-4.5,0L740,167z M741.9,156.8l2.4,0c1.2,0,2.6,0.3,2.6,1.8c0,1.8-1.5,1.9-3.1,1.9l-1.9,0L741.9,156.8z"/>
</svg>
